<svg width="97" height="30" viewBox="0 0 97 30" fill="none" xmlns="http://www.w3.org/2000/svg">
<path d="M87.9644 16.9782C86.9913 17.8361 86.0746 18.5848 85.2408 19.4006C84.7455 19.8858 84.9588 20.2274 85.7467 20.3849C86.3056 20.4972 86.4148 20.6376 86.2104 21.0525C86.1786 21.1126 86.1318 21.1655 86.0735 21.2072C86.0151 21.2488 85.9468 21.2781 85.8737 21.2928C84.3735 21.3084 82.8769 21.3037 81.345 21.3037C81.278 20.792 81.3926 20.4926 81.9602 20.2601C82.6829 19.9696 83.3511 19.583 83.9416 19.1136C85.0469 18.2151 86.057 17.2246 87.1147 16.284C87.2212 16.2102 87.2917 16.1031 87.3117 15.9848C87.3317 15.8664 87.2997 15.7457 87.2222 15.6476C86.5612 14.4714 85.9195 13.2844 85.269 12.1036C84.89 11.4141 84.3488 10.8759 83.4886 10.6794C83.4621 9.81679 83.4974 9.78247 84.414 9.78247H90.4323C90.4887 10.3315 90.3688 10.6763 89.7043 10.7371C89.3411 10.7699 88.9991 10.9976 89.1648 11.3611C89.5544 12.2003 90.018 13.013 90.4658 13.8662C90.5903 13.8205 90.7086 13.7624 90.8184 13.6931C91.4706 13.1128 92.1352 12.5434 92.7575 11.9398C93.2863 11.4203 93.4626 10.8167 92.3449 10.6576C92.2703 10.6268 92.2059 10.5794 92.158 10.5201C92.1102 10.4608 92.0804 10.3915 92.0717 10.3191C92.1034 10.1194 91.9889 9.78247 92.4243 9.78247C93.9421 9.78247 95.4599 9.78247 96.9688 9.78247C97.0622 10.4751 96.9688 10.5374 96.3501 10.7823C95.737 11.0081 95.1677 11.3176 94.6631 11.6996C93.519 12.6355 92.4454 13.6369 91.3684 14.6321C91.3078 14.7089 91.2687 14.7973 91.2543 14.89C91.2399 14.9828 91.2506 15.0772 91.2855 15.1656C91.9906 16.4821 92.7328 17.7877 93.4714 19.0918C93.7887 19.6533 94.2347 20.1197 94.9257 20.3241C95.3453 20.4473 95.2307 20.6953 95.2042 20.948C95.1743 21.2273 94.9856 21.3193 94.6842 21.3177C93.5243 21.3177 92.3643 21.3177 91.2044 21.3177H87.9079C87.8216 20.6049 87.8621 20.5503 88.5796 20.3818C89.3728 20.1915 89.5738 19.8187 89.2107 19.1713C88.8193 18.4585 88.4139 17.7643 87.9644 16.9782Z" fill="#22C45E"/>
<path d="M37.9992 18.3569C36.7124 20.288 34.9108 21.4876 32.3759 21.6498C31.5491 21.714 30.716 21.6613 29.9079 21.4938C27.7397 21.0009 26.414 19.466 26.3435 17.2244C26.2554 14.4042 27.4171 12.0457 30.13 10.4218C31.6884 9.48592 33.4371 9.22386 35.2757 9.50932C37.451 9.84313 38.8472 11.3422 38.9459 13.4152C38.967 13.8614 38.8771 14.3106 38.8771 14.7583C38.8771 15.1436 38.6779 15.2387 38.2742 15.2372C36.0637 15.2247 33.8513 15.2372 31.6408 15.2372C30.8246 15.2372 30.7699 15.2372 30.6818 15.9532C30.5637 16.9187 30.4315 17.8983 30.5055 18.8608C30.5954 20.143 31.7571 20.8309 33.1903 20.5953C34.6728 20.352 35.7129 19.5284 36.619 18.5332C37.1496 17.9389 37.1513 17.9389 37.9992 18.3569ZM32.9646 14.3917C33.4935 14.3917 34.0223 14.4151 34.5353 14.3777C34.7028 14.3668 34.9831 14.2061 34.9936 14.0985C35.0853 13.1625 35.2087 12.2266 35.1594 11.2907C35.1206 10.5794 34.4225 10.1988 33.6098 10.2627C33.2803 10.2756 32.9619 10.3721 32.6927 10.5409C32.4235 10.7096 32.215 10.9434 32.0921 11.2143C31.6831 12.1299 31.3869 13.0861 31.052 14.022C30.9639 14.27 31.1172 14.3792 31.3922 14.3792L32.9646 14.3917Z" fill="#22C45E"/>
<path d="M80.7509 18.3665C79.9594 19.6144 78.8753 20.5924 77.384 21.1743C75.9429 21.7372 74.333 21.8671 72.8007 21.544C70.6059 21.1009 69.1481 19.4912 69.0987 17.2075C69.0318 14.2562 70.2816 11.815 73.2325 10.2411C74.8561 9.37383 76.6401 9.19445 78.4752 9.60157C80.3102 10.0087 81.5548 11.4001 81.687 13.1456C81.7275 13.6853 81.6553 14.2375 81.6447 14.7757C81.6447 15.1563 81.4085 15.2436 81.0136 15.2436C78.803 15.2312 76.5925 15.2436 74.3819 15.2436C73.5675 15.2436 73.534 15.2436 73.4476 15.9799C73.3401 16.8987 73.199 17.8283 73.2466 18.7455C73.3189 20.1323 74.4965 20.8623 76.0284 20.5862C77.4809 20.3241 78.5069 19.5099 79.3953 18.5256C79.9171 17.9391 79.9788 17.9282 80.7509 18.3665ZM75.7216 14.3951C76.2505 14.3951 76.7793 14.4169 77.2941 14.3826C77.4703 14.3717 77.7471 14.2266 77.7718 14.1205C77.9727 13.1628 78.2054 12.2003 77.9393 11.2223C77.763 10.564 77.1707 10.2084 76.4074 10.2661C76.0591 10.2816 75.7235 10.3867 75.4417 10.5685C75.1599 10.7502 74.9442 11.0007 74.8208 11.2894C74.4242 12.1769 74.1422 13.105 73.8248 14.0191C73.7279 14.2968 73.9095 14.3966 74.2021 14.3951C74.7098 14.3919 75.2157 14.3935 75.7216 14.3951Z" fill="#22C45E"/>
<path d="M60.6725 10.6262C60.5861 10.0584 60.7624 9.7714 61.3353 9.57329C63.3149 8.88695 64.4907 7.48307 65.3739 5.84988C65.7829 5.0949 65.8499 5.06058 66.8934 5.24309C66.6766 6.335 66.4651 7.44095 66.2377 8.5391C65.9803 9.787 65.975 9.787 67.417 9.787H68.8696C68.9154 10.5669 68.8554 10.6293 68.0375 10.6309C67.4752 10.6309 66.9128 10.6418 66.3523 10.6309C65.9821 10.6309 65.7952 10.7526 65.7317 11.0879C65.2893 13.3778 64.8221 15.6646 64.3902 17.9514C64.3047 18.3773 64.2929 18.8123 64.355 19.2414C64.4572 19.8747 65.0513 20.0322 65.589 19.597C66.2729 19.0355 66.4704 18.2555 66.763 17.513C66.8265 17.3571 66.9516 17.1356 67.105 17.0872C67.7079 16.8969 67.9388 17.0997 67.7889 17.6488C67.5175 18.6393 67.1261 19.5799 66.3681 20.3754C65.247 21.5516 63.7944 21.8729 62.1532 21.6233C61.159 21.4673 60.602 20.9557 60.5843 20.0291C60.5757 19.0365 60.6618 18.0451 60.8417 17.0654C61.1837 15.0859 61.5927 13.1158 62.0034 11.1378C62.088 10.7354 61.9505 10.6059 61.5239 10.6215C61.2471 10.634 60.9774 10.6262 60.6725 10.6262Z" fill="#22C45E"/>
<path d="M46.2298 9.46724L45.7451 11.963L45.8949 12.0207C46.0049 11.8891 46.1226 11.7625 46.2475 11.6417C46.808 11.1457 47.3316 10.6075 47.9521 10.1754C48.7172 9.64194 49.6567 9.57019 50.5963 9.69342C50.986 9.74366 51.3461 9.90637 51.6205 10.1563C51.895 10.4062 52.0685 10.7293 52.1141 11.0755C52.1835 11.509 52.0893 11.9506 51.8461 12.332C51.6029 12.7133 51.2243 13.0129 50.7691 13.1844C50.4332 13.305 50.0738 13.3659 49.7114 13.3638C48.6678 13.342 48.2341 12.7133 48.6061 11.8523C48.7277 11.5746 49.075 11.2408 48.6713 10.9866C48.2271 10.7073 47.834 11.0037 47.5237 11.272C46.4925 12.1658 45.9178 13.2998 45.6128 14.5134C45.2338 16.0296 44.9377 17.5645 44.6503 19.0963C44.4741 20.0463 44.8654 20.4175 45.9689 20.4643C46.0571 20.4643 46.1452 20.4799 46.2281 20.4877C46.3374 21.2068 46.2475 21.3098 45.4983 21.3098H39.792C39.6157 21.3098 39.4395 21.2942 39.2385 21.2848C39.1856 20.8028 39.2385 20.4534 39.8555 20.3177C40.4972 20.1773 40.7598 19.7078 40.8691 19.1743C41.3145 16.9988 41.7546 14.8223 42.1895 12.6447C42.2494 12.3452 42.3217 12.0457 42.3657 11.7447C42.4574 11.063 42.2864 10.8508 41.5443 10.6777C41.4579 10.6574 41.368 10.6293 41.2957 10.6059C41.2252 9.8884 41.2957 9.81665 42.0431 9.75893C43.2877 9.66222 44.5322 9.56603 45.7768 9.47036C45.9108 9.45788 46.05 9.46724 46.2298 9.46724Z" fill="#22C45E"/>
<path d="M57.4096 20.4939C57.3056 21.3082 57.3056 21.3082 56.4613 21.3082C54.7936 21.3082 53.1278 21.3082 51.4601 21.2988C51.2698 21.2988 50.919 21.1647 50.919 21.0898C50.919 20.8262 50.8661 20.4783 51.3085 20.3941C52.1529 20.2381 52.4685 19.6859 52.6042 19.0136C53.0743 16.6645 53.5409 14.3143 54.0039 11.963C54.1696 11.1129 54.0744 11.0068 52.9462 10.5591C52.9462 9.80726 52.9462 9.80882 53.7448 9.75579C55.081 9.66687 56.4154 9.56392 57.7499 9.47033C57.9261 9.45785 58.1024 9.47033 58.3263 9.47033C58.0531 10.829 57.7851 12.1502 57.5225 13.4714C57.1499 15.3432 56.7797 17.2208 56.4119 19.1041C56.2691 19.845 56.4489 20.0899 57.4096 20.4939Z" fill="#22C45E"/>
<path d="M57.1716 4.19027C58.0653 4.19027 58.6823 4.5194 58.9062 5.10904C59.1442 5.73299 58.841 6.48952 58.1605 6.92629C57.8681 7.11665 57.5347 7.25196 57.1808 7.32386C56.827 7.39577 56.4603 7.40273 56.1033 7.34433C54.7442 7.14779 54.2471 6.08708 55.0597 5.09812C55.2982 4.80288 55.6163 4.56515 55.9852 4.40658C56.3541 4.24801 56.7619 4.17365 57.1716 4.19027Z" fill="#22C45E"/>
<path d="M0 1.96276C0.11282 1.35909 0.19391 0.836532 0.322595 0.323334C0.352563 0.207904 0.528844 0.0955931 0.671632 0.0394377C0.812542 0.00981834 0.958584 0.00452207 1.10176 0.023839H15.1902C15.3841 0.023839 15.5798 0.0378778 15.8477 0.0487969C15.7384 0.643108 15.6714 1.19842 15.511 1.7319C15.474 1.85981 15.1479 1.95028 14.9363 2.0002C14.4304 2.12031 13.9016 2.17334 13.4044 2.31217C12.1352 2.6725 11.5976 3.44152 11.8285 4.60362C12.2022 6.47547 12.6165 8.34732 13.0131 10.227C13.0554 10.4266 13.0924 10.6278 13.1365 10.8509C12.999 10.8712 12.9144 10.8915 12.828 10.8961C12.4878 10.9164 12.2004 11.0116 12.204 11.3641C12.2075 11.7166 12.4966 11.8321 12.8192 11.8664C13.1418 11.9007 13.4891 11.9288 13.4185 12.2938C12.0294 12.2673 10.6615 12.2376 9.2918 12.2189C9.03935 12.1946 8.78399 12.2229 8.54613 12.3016C8.34517 12.3952 8.08074 12.6416 8.10542 12.7836C8.1301 12.9255 8.43154 13.1174 8.6519 13.197C8.81407 13.2562 9.04324 13.1517 9.23891 13.1611C10.5751 13.2157 11.9113 13.2812 13.2476 13.3467C13.3206 13.3433 13.3929 13.3608 13.4538 13.3966C13.55 13.4911 13.6389 13.5911 13.72 13.6961C13.5895 13.7414 13.4538 13.8349 13.3304 13.8256C12.5371 13.7616 11.7439 13.6415 10.9559 13.6041C9.1777 13.5396 7.40044 13.7507 5.70447 14.228C5.60399 14.2546 5.49822 14.2655 5.35191 14.292C5.08043 13.0441 4.81072 11.8212 4.54806 10.5982C4.17435 8.86779 3.80357 7.13634 3.43573 5.40384C3.07082 3.67394 2.26169 2.28409 0 1.96276Z" fill="#22C45E"/>
<path d="M23.3468 13.3561L21.4077 12.1378C21.5135 11.9428 21.614 11.7431 21.7285 11.5497C22.922 9.53436 24.1224 7.52213 25.3106 5.50365C25.5392 5.12102 25.7405 4.72612 25.9135 4.32127C26.266 3.48206 26.0051 2.87839 25.0726 2.5087C24.5042 2.29909 23.9137 2.13973 23.3098 2.03294C22.9132 1.95338 22.7351 1.84419 22.8567 1.45735C22.9978 1.01278 22.9202 0.374794 23.2375 0.153292C23.5813 -0.0884881 24.267 0.0285023 24.8029 0.0269424C27.4119 0.0191431 30.0208 0.0269424 32.6298 0.0269424C33.3349 0.0269424 33.2873 0.0269425 33.2256 0.650891C33.1445 1.47606 32.8731 2.00642 31.8277 2.27316C30.3963 2.63973 29.4391 3.65521 28.7075 4.76895C27.4841 6.62208 26.3365 8.51265 25.1643 10.3939C24.572 11.3516 23.9744 12.3234 23.3468 13.3561Z" fill="#22C45E"/>
<path d="M10.3389 29.6536C9.78163 29.6337 9.25529 29.4217 8.87245 29.0628C8.48962 28.704 8.28069 28.2268 8.29036 27.7333C8.30003 27.2399 8.52754 26.7694 8.92422 26.4225C9.32089 26.0756 9.85523 25.8799 10.4129 25.8771C11.5623 25.8912 12.5424 26.76 12.5283 27.749C12.5288 28.002 12.4723 28.2526 12.362 28.486C12.2517 28.7194 12.0898 28.931 11.8859 29.1084C11.682 29.2858 11.4401 29.4254 11.1745 29.519C10.9089 29.6126 10.6248 29.6584 10.3389 29.6536ZM10.3918 26.3295C9.5421 26.317 8.76117 27.0096 8.75764 27.7786C8.75764 28.5055 9.51918 29.1919 10.3583 29.2168C11.1974 29.2418 11.9942 28.5461 12.0136 27.7817C12.0087 27.4009 11.8368 27.0366 11.5343 26.7657C11.2317 26.4947 10.8221 26.3384 10.3918 26.3295Z" fill="#22C45E"/>
<path d="M6.92617 21.3537C6.6688 20.9918 6.87857 20.8623 7.18882 20.7625C10.1204 19.8047 12.8827 20.0793 15.43 21.6984C16.0117 22.0666 16.4877 22.5642 17.0059 23.0103C17.2545 23.224 17.2862 23.4455 16.9301 23.6654C15.7543 22.2927 14.2648 21.3256 12.3662 20.8966C10.5483 20.481 8.6232 20.6427 6.92617 21.3537Z" fill="#22C45E"/>
<path d="M7.20456 22.784C7.00889 22.472 7.15168 22.3332 7.4443 22.2006C10.3512 20.8778 14.4956 21.9026 16.1632 24.3844C16.2813 24.5607 16.2496 24.8165 16.202 25.0676C13.8574 22.1756 10.9294 21.3192 7.20456 22.784Z" fill="#22C45E"/>
<path d="M12.5338 29.8955C13.4804 29.1327 13.736 28.1796 13.535 27.1298C13.4081 26.47 12.9692 25.9615 12.4016 25.5341C11.1676 24.5981 9.51583 24.7307 7.87465 25.9006C7.67193 25.6042 7.73715 25.3874 8.05093 25.1706C8.66388 24.7543 9.40451 24.5114 10.176 24.4735C10.9475 24.4357 11.7139 24.6047 12.3751 24.9585C13.6637 25.6542 14.4094 27.1158 14.0322 28.4089C13.8876 28.9081 13.5456 29.3729 13.2336 29.8128C13.1472 29.936 12.8423 29.9407 12.6378 30L12.5338 29.8955Z" fill="#22C45E"/>
<path d="M7.53253 24.275C7.33333 24.0114 7.39503 23.8382 7.70881 23.6635C10.3812 22.1988 14.2788 23.3874 15.3365 26.0189C15.4194 26.2248 15.2748 26.5025 15.1814 26.738C13.3428 23.4607 11.2679 22.7884 7.53253 24.275Z" fill="#22C45E"/>
<path d="M6.46216 19.8107C6.55735 19.6688 6.61729 19.4442 6.75479 19.3989C9.50654 18.4926 12.2195 18.5878 14.8637 19.7281C15.04 19.8076 15.1193 20.0868 15.1934 20.313C12.3729 19.0027 9.51535 18.9341 6.58732 19.9168L6.46216 19.8107Z" fill="#22C45E"/>
<path d="M14.7658 18.6223C12.0793 17.6152 9.05461 17.576 6.33598 18.5131C6.11034 18.2355 6.11034 18.0717 6.51226 17.95C9.01456 17.1881 11.7329 17.1881 14.2352 17.95C14.593 18.0545 14.8081 18.2105 14.7658 18.6223Z" fill="#22C45E"/>
<path d="M14.4339 16.9563C9.71304 16.2481 9.57201 16.2512 6.0076 17.0811C5.78372 16.7894 5.89654 16.6287 6.25439 16.5304C8.73543 15.8362 11.3887 15.7821 13.9032 16.3745C14.2664 16.4587 14.4374 16.6006 14.4339 16.9563Z" fill="#22C45E"/>
<path d="M14.0473 15.4213C11.2856 14.7846 8.37271 14.8856 5.67573 15.7114L5.55762 15.2435C8.17034 14.4596 10.978 14.3343 13.6666 14.8816C13.8552 14.9206 14.0015 15.1171 14.169 15.2419L14.0473 15.4213Z" fill="#22C45E"/>
<path d="M20.2301 14.2778C20.7589 14.6304 21.3072 14.9704 21.8166 15.3479C21.9206 15.4259 21.8907 15.6458 21.9242 15.8003L21.7778 15.8517C21.2155 15.4883 20.6426 15.1373 20.0979 14.7598C20.008 14.6959 20.0415 14.4962 20.0186 14.3605L20.2301 14.2778Z" fill="#22C45E"/>
<path d="M20.9651 13.0316L22.5305 14.0393C22.7967 14.2109 22.8143 14.384 22.5305 14.5837C21.9576 14.2234 21.3794 13.8771 20.8294 13.4918C20.7413 13.4309 20.7765 13.2297 20.7554 13.094L20.9651 13.0316Z" fill="#22C45E"/>
<path d="M18.6854 21.0368C18.0843 20.5689 17.5589 20.1914 17.0636 19.7764C16.9825 19.7078 17.0301 19.5191 17.0178 19.3849L17.194 19.2882C17.7229 19.7094 18.2517 20.1212 18.7524 20.5611C18.8317 20.6203 18.7295 20.8278 18.6854 21.0368Z" fill="#22C45E"/>
<path d="M17.7835 22.2739C17.3093 21.8855 16.8192 21.5111 16.3732 21.1009C16.271 21.0073 16.308 20.7889 16.2798 20.6329L16.4843 20.5612C16.9602 20.9683 17.4503 21.3629 17.8945 21.7919C17.9897 21.8839 17.9386 22.1039 17.9527 22.2599L17.7835 22.2739Z" fill="#22C45E"/>
<path d="M19.5498 19.7719C18.8905 19.3039 18.3775 18.9498 17.8963 18.5692C17.7905 18.4865 17.8011 18.2884 17.7588 18.1434L17.958 18.0404C18.4868 18.4319 19.0315 18.811 19.5445 19.2243C19.6221 19.293 19.5498 19.5098 19.5498 19.7719Z" fill="#22C45E"/>
<path d="M20.1928 18.3789C19.664 18.0077 19.1069 17.6489 18.5904 17.2574C18.5058 17.1934 18.5552 16.9906 18.5411 16.8533L18.7174 16.791C19.2339 17.1575 19.7645 17.5132 20.2598 17.9016C20.3585 17.9796 20.325 18.187 20.3532 18.3352L20.1928 18.3789Z" fill="#22C45E"/>
<path d="M19.4879 15.5478C19.9955 15.8988 20.5173 16.2373 21.0039 16.6116C21.1114 16.6959 21.0955 16.9049 21.1378 17.0562L20.9721 17.1061C20.431 16.7442 19.8792 16.3917 19.3556 16.0142C19.2657 15.9487 19.301 15.749 19.2781 15.6117L19.4879 15.5478Z" fill="#22C45E"/>
<path d="M10.379 28.2263C10.037 28.2263 9.79552 28.0454 9.86604 27.7583C9.90502 27.6556 9.9701 27.5621 10.0563 27.485C10.1424 27.4079 10.2474 27.3494 10.3631 27.3138C10.6857 27.242 10.9079 27.4448 10.9202 27.7521C10.9325 28.0594 10.7386 28.2201 10.379 28.2263Z" fill="#22C45E"/>
</svg>
