<svg width="720" height="960" viewBox="0 0 720 960" fill="none" xmlns="http://www.w3.org/2000/svg">
<g clip-path="url(#clip0_17_30453)">
<rect width="720" height="960" fill="#F2F4F7"/>
<line x1="625.24" y1="12.7244" x2="629.5" y2="1.01986" stroke="white" stroke-width="2"/>
<line x1="651.864" y1="12.1777" x2="658.092" y2="1.39079" stroke="white" stroke-width="2"/>
<line x1="678.656" y1="11.6453" x2="686.662" y2="2.10368" stroke="white" stroke-width="2"/>
<line x1="705.65" y1="10.7437" x2="715.192" y2="2.73735" stroke="white" stroke-width="2"/>
<line x1="439.709" y1="12.2758" x2="430.167" y2="4.26944" stroke="white" stroke-width="2"/>
<line x1="466.461" y1="12.9309" x2="458.454" y2="3.38926" stroke="white" stroke-width="2"/>
<line x1="493.052" y1="13.1777" x2="486.824" y2="2.39079" stroke="white" stroke-width="2"/>
<line x1="519.529" y1="13.4084" x2="515.269" y2="1.7039" stroke="white" stroke-width="2"/>
<line x1="545.937" y1="13.6297" x2="543.774" y2="1.36324" stroke="white" stroke-width="2"/>
<line x1="572.324" y1="13.4561" x2="572.324" y2="1.00036" stroke="white" stroke-width="2"/>
<line x1="598.742" y1="13.2824" x2="600.905" y2="1.01594" stroke="white" stroke-width="2"/>
<line x1="597.217" y1="34.5222" x2="601.477" y2="22.8177" stroke="white" stroke-width="2"/>
<line x1="623.837" y1="33.9746" x2="630.065" y2="23.1877" stroke="white" stroke-width="2"/>
<line x1="650.628" y1="33.4431" x2="658.635" y2="23.9015" stroke="white" stroke-width="2"/>
<line x1="677.627" y1="32.5416" x2="687.168" y2="24.5352" stroke="white" stroke-width="2"/>
<line x1="704.859" y1="31.2736" x2="715.646" y2="25.0458" stroke="white" stroke-width="2"/>
<line x1="438.437" y1="34.7287" x2="430.431" y2="25.1871" stroke="white" stroke-width="2"/>
<line x1="465.029" y1="34.9746" x2="458.801" y2="24.1877" stroke="white" stroke-width="2"/>
<line x1="491.502" y1="35.2063" x2="487.242" y2="23.5018" stroke="white" stroke-width="2"/>
<line x1="517.91" y1="35.4266" x2="515.747" y2="23.1601" stroke="white" stroke-width="2"/>
<line x1="544.297" y1="35.2529" x2="544.297" y2="22.7972" stroke="white" stroke-width="2"/>
<line x1="570.718" y1="35.0793" x2="572.881" y2="22.8128" stroke="white" stroke-width="2"/>
<line x1="569.189" y1="56.3201" x2="573.449" y2="44.6156" stroke="white" stroke-width="2"/>
<line x1="595.814" y1="55.7725" x2="602.042" y2="44.9855" stroke="white" stroke-width="2"/>
<line x1="622.605" y1="55.24" x2="630.611" y2="45.6984" stroke="white" stroke-width="2"/>
<line x1="649.603" y1="54.3384" x2="659.145" y2="46.3321" stroke="white" stroke-width="2"/>
<line x1="676.836" y1="53.0705" x2="687.623" y2="46.8427" stroke="white" stroke-width="2"/>
<line x1="704.33" y1="52.2185" x2="716.034" y2="47.9584" stroke="white" stroke-width="2"/>
<line x1="437.001" y1="56.7725" x2="430.773" y2="45.9855" stroke="white" stroke-width="2"/>
<line x1="463.478" y1="57.0041" x2="459.218" y2="45.2996" stroke="white" stroke-width="2"/>
<line x1="489.886" y1="57.2244" x2="487.723" y2="44.958" stroke="white" stroke-width="2"/>
<line x1="516.273" y1="57.0508" x2="516.273" y2="44.5951" stroke="white" stroke-width="2"/>
<line x1="542.691" y1="56.8771" x2="544.854" y2="44.6107" stroke="white" stroke-width="2"/>
<line x1="541.166" y1="78.117" x2="545.426" y2="66.4124" stroke="white" stroke-width="2"/>
<line x1="567.786" y1="77.5703" x2="574.014" y2="66.7834" stroke="white" stroke-width="2"/>
<line x1="594.578" y1="77.0379" x2="602.584" y2="67.4963" stroke="white" stroke-width="2"/>
<line x1="621.576" y1="76.1363" x2="631.118" y2="68.1299" stroke="white" stroke-width="2"/>
<line x1="648.812" y1="74.8683" x2="659.599" y2="68.6405" stroke="white" stroke-width="2"/>
<line x1="676.306" y1="74.0164" x2="688.011" y2="69.7563" stroke="white" stroke-width="2"/>
<line x1="704.08" y1="72.8033" x2="716.347" y2="70.6404" stroke="white" stroke-width="2"/>
<line x1="435.451" y1="78.801" x2="431.191" y2="67.0965" stroke="white" stroke-width="2"/>
<line x1="461.859" y1="79.0223" x2="459.696" y2="66.7558" stroke="white" stroke-width="2"/>
<line x1="488.246" y1="78.8486" x2="488.246" y2="66.3929" stroke="white" stroke-width="2"/>
<line x1="514.668" y1="78.675" x2="516.83" y2="66.4085" stroke="white" stroke-width="2"/>
<line x1="513.138" y1="99.9148" x2="517.399" y2="88.2103" stroke="white" stroke-width="2"/>
<line x1="539.763" y1="99.3672" x2="545.991" y2="88.5802" stroke="white" stroke-width="2"/>
<line x1="566.554" y1="98.8357" x2="574.561" y2="89.2941" stroke="white" stroke-width="2"/>
<line x1="593.553" y1="97.9332" x2="603.094" y2="89.9268" stroke="white" stroke-width="2"/>
<line x1="620.785" y1="96.6662" x2="631.572" y2="90.4384" stroke="white" stroke-width="2"/>
<line x1="648.279" y1="95.8132" x2="659.984" y2="91.5531" stroke="white" stroke-width="2"/>
<line x1="676.053" y1="94.6011" x2="688.319" y2="92.4382" stroke="white" stroke-width="2"/>
<line x1="433.836" y1="100.819" x2="431.673" y2="88.5527" stroke="white" stroke-width="2"/>
<line x1="460.223" y1="100.646" x2="460.223" y2="88.1898" stroke="white" stroke-width="2"/>
<line x1="486.64" y1="100.472" x2="488.803" y2="88.2054" stroke="white" stroke-width="2"/>
<line x1="719.68" y1="95.418" x2="707.224" y2="95.418" stroke="white" stroke-width="2"/>
<line x1="485.115" y1="121.712" x2="489.375" y2="110.007" stroke="white" stroke-width="2"/>
<line x1="511.736" y1="121.165" x2="517.963" y2="110.378" stroke="white" stroke-width="2"/>
<line x1="538.527" y1="120.633" x2="546.533" y2="111.091" stroke="white" stroke-width="2"/>
<line x1="565.525" y1="119.731" x2="575.067" y2="111.725" stroke="white" stroke-width="2"/>
<line x1="592.762" y1="118.463" x2="603.549" y2="112.235" stroke="white" stroke-width="2"/>
<line x1="620.256" y1="117.611" x2="631.96" y2="113.351" stroke="white" stroke-width="2"/>
<line x1="648.029" y1="116.398" x2="660.296" y2="114.235" stroke="white" stroke-width="2"/>
<line x1="432.195" y1="122.443" x2="432.195" y2="109.988" stroke="white" stroke-width="2"/>
<line x1="458.617" y1="122.27" x2="460.78" y2="110.003" stroke="white" stroke-width="2"/>
<line x1="691.652" y1="117.216" x2="679.197" y2="117.216" stroke="white" stroke-width="2"/>
<line x1="719.365" y1="118.368" x2="707.099" y2="116.205" stroke="white" stroke-width="2"/>
<line x1="457.088" y1="143.51" x2="461.348" y2="131.805" stroke="white" stroke-width="2"/>
<line x1="483.712" y1="142.962" x2="489.94" y2="132.175" stroke="white" stroke-width="2"/>
<line x1="510.503" y1="142.43" x2="518.51" y2="132.889" stroke="white" stroke-width="2"/>
<line x1="537.502" y1="141.529" x2="547.043" y2="133.523" stroke="white" stroke-width="2"/>
<line x1="564.734" y1="140.261" x2="575.521" y2="134.033" stroke="white" stroke-width="2"/>
<line x1="592.228" y1="139.409" x2="603.933" y2="135.149" stroke="white" stroke-width="2"/>
<line x1="620.002" y1="138.196" x2="632.269" y2="136.033" stroke="white" stroke-width="2"/>
<line x1="430.589" y1="144.068" x2="432.752" y2="131.801" stroke="white" stroke-width="2"/>
<line x1="663.629" y1="139.013" x2="651.173" y2="139.013" stroke="white" stroke-width="2"/>
<line x1="691.338" y1="140.165" x2="679.072" y2="138.003" stroke="white" stroke-width="2"/>
<line x1="718.775" y1="141.288" x2="707.071" y2="137.028" stroke="white" stroke-width="2"/>
<line x1="429.064" y1="165.307" x2="433.324" y2="153.603" stroke="white" stroke-width="2"/>
<line x1="455.685" y1="164.76" x2="461.913" y2="153.973" stroke="white" stroke-width="2"/>
<line x1="482.476" y1="164.227" x2="490.483" y2="154.686" stroke="white" stroke-width="2"/>
<line x1="509.474" y1="163.326" x2="519.016" y2="155.319" stroke="white" stroke-width="2"/>
<line x1="536.711" y1="162.058" x2="547.498" y2="155.83" stroke="white" stroke-width="2"/>
<line x1="564.205" y1="161.206" x2="575.909" y2="156.946" stroke="white" stroke-width="2"/>
<line x1="591.979" y1="159.994" x2="604.245" y2="157.831" stroke="white" stroke-width="2"/>
<line x1="717.93" y1="163.79" x2="707.143" y2="157.562" stroke="white" stroke-width="2"/>
<line x1="635.605" y1="160.811" x2="623.15" y2="160.811" stroke="white" stroke-width="2"/>
<line x1="663.315" y1="161.963" x2="651.048" y2="159.8" stroke="white" stroke-width="2"/>
<line x1="690.748" y1="163.085" x2="679.043" y2="158.825" stroke="white" stroke-width="2"/>
<line x1="427.661" y1="186.558" x2="433.889" y2="175.771" stroke="white" stroke-width="2"/>
<line x1="454.453" y1="186.025" x2="462.459" y2="176.484" stroke="white" stroke-width="2"/>
<line x1="481.451" y1="185.124" x2="490.993" y2="177.117" stroke="white" stroke-width="2"/>
<line x1="508.684" y1="183.856" x2="519.471" y2="177.628" stroke="white" stroke-width="2"/>
<line x1="536.178" y1="183.004" x2="547.882" y2="178.744" stroke="white" stroke-width="2"/>
<line x1="563.951" y1="181.791" x2="576.218" y2="179.628" stroke="white" stroke-width="2"/>
<line x1="689.902" y1="185.588" x2="679.115" y2="179.36" stroke="white" stroke-width="2"/>
<line x1="716.853" y1="186.656" x2="707.312" y2="178.649" stroke="white" stroke-width="2"/>
<line x1="607.578" y1="182.607" x2="595.122" y2="182.607" stroke="white" stroke-width="2"/>
<line x1="635.287" y1="183.76" x2="623.021" y2="181.597" stroke="white" stroke-width="2"/>
<line x1="662.724" y1="184.883" x2="651.02" y2="180.623" stroke="white" stroke-width="2"/>
<line x1="426.425" y1="207.823" x2="434.432" y2="198.281" stroke="white" stroke-width="2"/>
<line x1="453.424" y1="206.92" x2="462.965" y2="198.914" stroke="white" stroke-width="2"/>
<line x1="480.66" y1="205.654" x2="491.447" y2="199.426" stroke="white" stroke-width="2"/>
<line x1="508.154" y1="204.802" x2="519.859" y2="200.541" stroke="white" stroke-width="2"/>
<line x1="535.928" y1="203.588" x2="548.194" y2="201.426" stroke="white" stroke-width="2"/>
<line x1="661.879" y1="207.386" x2="651.092" y2="201.158" stroke="white" stroke-width="2"/>
<line x1="688.826" y1="208.453" x2="679.284" y2="200.446" stroke="white" stroke-width="2"/>
<line x1="715.578" y1="209.109" x2="707.571" y2="199.567" stroke="white" stroke-width="2"/>
<line x1="579.555" y1="204.405" x2="567.099" y2="204.405" stroke="white" stroke-width="2"/>
<line x1="607.264" y1="205.558" x2="594.997" y2="203.395" stroke="white" stroke-width="2"/>
<line x1="634.701" y1="206.681" x2="622.996" y2="202.421" stroke="white" stroke-width="2"/>
<line x1="425.4" y1="228.718" x2="434.942" y2="220.712" stroke="white" stroke-width="2"/>
<line x1="452.633" y1="227.45" x2="463.42" y2="221.223" stroke="white" stroke-width="2"/>
<line x1="480.127" y1="226.598" x2="491.831" y2="222.338" stroke="white" stroke-width="2"/>
<line x1="507.901" y1="225.385" x2="520.167" y2="223.222" stroke="white" stroke-width="2"/>
<line x1="633.852" y1="229.182" x2="623.065" y2="222.955" stroke="white" stroke-width="2"/>
<line x1="660.803" y1="230.25" x2="651.261" y2="222.244" stroke="white" stroke-width="2"/>
<line x1="687.55" y1="230.905" x2="679.544" y2="221.364" stroke="white" stroke-width="2"/>
<line x1="714.146" y1="231.152" x2="707.918" y2="220.365" stroke="white" stroke-width="2"/>
<line x1="551.527" y1="226.203" x2="539.072" y2="226.203" stroke="white" stroke-width="2"/>
<line x1="579.237" y1="227.355" x2="566.97" y2="225.192" stroke="white" stroke-width="2"/>
<line x1="606.674" y1="228.478" x2="594.969" y2="224.218" stroke="white" stroke-width="2"/>
<line x1="424.609" y1="249.248" x2="435.396" y2="243.02" stroke="white" stroke-width="2"/>
<line x1="452.103" y1="248.396" x2="463.808" y2="244.136" stroke="white" stroke-width="2"/>
<line x1="479.877" y1="247.183" x2="492.144" y2="245.02" stroke="white" stroke-width="2"/>
<line x1="605.828" y1="250.98" x2="595.041" y2="244.752" stroke="white" stroke-width="2"/>
<line x1="632.775" y1="252.048" x2="623.234" y2="244.042" stroke="white" stroke-width="2"/>
<line x1="659.527" y1="252.703" x2="651.521" y2="243.162" stroke="white" stroke-width="2"/>
<line x1="686.118" y1="252.949" x2="679.891" y2="242.162" stroke="white" stroke-width="2"/>
<line x1="712.595" y1="253.181" x2="708.335" y2="241.476" stroke="white" stroke-width="2"/>
<line x1="523.504" y1="248" x2="511.048" y2="248" stroke="white" stroke-width="2"/>
<line x1="551.213" y1="249.153" x2="538.947" y2="246.99" stroke="white" stroke-width="2"/>
<line x1="578.65" y1="250.276" x2="566.946" y2="246.016" stroke="white" stroke-width="2"/>
<line x1="424.076" y1="270.193" x2="435.78" y2="265.933" stroke="white" stroke-width="2"/>
<line x1="451.85" y1="268.981" x2="464.116" y2="266.818" stroke="white" stroke-width="2"/>
<line x1="577.801" y1="272.778" x2="567.014" y2="266.55" stroke="white" stroke-width="2"/>
<line x1="604.752" y1="273.845" x2="595.21" y2="265.839" stroke="white" stroke-width="2"/>
<line x1="631.503" y1="274.5" x2="623.497" y2="264.959" stroke="white" stroke-width="2"/>
<line x1="658.095" y1="274.747" x2="651.867" y2="263.96" stroke="white" stroke-width="2"/>
<line x1="684.568" y1="274.979" x2="680.308" y2="263.274" stroke="white" stroke-width="2"/>
<line x1="710.976" y1="275.199" x2="708.813" y2="262.933" stroke="white" stroke-width="2"/>
<line x1="495.477" y1="269.798" x2="483.021" y2="269.798" stroke="white" stroke-width="2"/>
<line x1="523.186" y1="270.951" x2="510.919" y2="268.788" stroke="white" stroke-width="2"/>
<line x1="550.623" y1="272.073" x2="538.918" y2="267.812" stroke="white" stroke-width="2"/>
<line x1="423.826" y1="290.778" x2="436.093" y2="288.615" stroke="white" stroke-width="2"/>
<line x1="549.777" y1="294.575" x2="538.99" y2="288.347" stroke="white" stroke-width="2"/>
<line x1="576.724" y1="295.643" x2="567.183" y2="287.637" stroke="white" stroke-width="2"/>
<line x1="603.476" y1="296.298" x2="595.47" y2="286.756" stroke="white" stroke-width="2"/>
<line x1="630.068" y1="296.545" x2="623.84" y2="285.758" stroke="white" stroke-width="2"/>
<line x1="656.545" y1="296.776" x2="652.285" y2="285.071" stroke="white" stroke-width="2"/>
<line x1="682.953" y1="296.997" x2="680.79" y2="284.73" stroke="white" stroke-width="2"/>
<line x1="709.34" y1="296.823" x2="709.34" y2="284.368" stroke="white" stroke-width="2"/>
<line x1="467.453" y1="291.595" x2="454.997" y2="291.595" stroke="white" stroke-width="2"/>
<line x1="495.162" y1="292.748" x2="482.896" y2="290.585" stroke="white" stroke-width="2"/>
<line x1="522.599" y1="293.87" x2="510.895" y2="289.61" stroke="white" stroke-width="2"/>
<line x1="521.75" y1="316.373" x2="510.963" y2="310.145" stroke="white" stroke-width="2"/>
<line x1="548.701" y1="317.44" x2="539.159" y2="309.434" stroke="white" stroke-width="2"/>
<line x1="575.453" y1="318.096" x2="567.446" y2="308.554" stroke="white" stroke-width="2"/>
<line x1="602.044" y1="318.342" x2="595.816" y2="307.555" stroke="white" stroke-width="2"/>
<line x1="628.517" y1="318.573" x2="624.257" y2="306.869" stroke="white" stroke-width="2"/>
<line x1="654.925" y1="318.794" x2="652.762" y2="306.527" stroke="white" stroke-width="2"/>
<line x1="681.312" y1="318.62" x2="681.312" y2="306.164" stroke="white" stroke-width="2"/>
<line x1="707.734" y1="318.446" x2="709.897" y2="306.18" stroke="white" stroke-width="2"/>
<line x1="439.426" y1="313.393" x2="426.97" y2="313.393" stroke="white" stroke-width="2"/>
<line x1="467.135" y1="314.545" x2="454.868" y2="312.382" stroke="white" stroke-width="2"/>
<line x1="494.572" y1="315.668" x2="482.868" y2="311.408" stroke="white" stroke-width="2"/>
<line x1="706.205" y1="339.686" x2="710.465" y2="327.982" stroke="white" stroke-width="2"/>
<line x1="493.727" y1="338.17" x2="482.94" y2="331.942" stroke="white" stroke-width="2"/>
<line x1="520.674" y1="339.238" x2="511.132" y2="331.231" stroke="white" stroke-width="2"/>
<line x1="547.425" y1="339.893" x2="539.419" y2="330.351" stroke="white" stroke-width="2"/>
<line x1="574.017" y1="340.14" x2="567.789" y2="329.353" stroke="white" stroke-width="2"/>
<line x1="600.494" y1="340.37" x2="596.234" y2="328.666" stroke="white" stroke-width="2"/>
<line x1="626.902" y1="340.592" x2="624.739" y2="328.325" stroke="white" stroke-width="2"/>
<line x1="653.289" y1="340.418" x2="653.289" y2="327.962" stroke="white" stroke-width="2"/>
<line x1="679.707" y1="340.244" x2="681.87" y2="327.978" stroke="white" stroke-width="2"/>
<line x1="439.112" y1="336.342" x2="426.845" y2="334.179" stroke="white" stroke-width="2"/>
<line x1="466.549" y1="337.465" x2="454.844" y2="333.205" stroke="white" stroke-width="2"/>
<line x1="678.181" y1="361.484" x2="682.442" y2="349.78" stroke="white" stroke-width="2"/>
<line x1="704.802" y1="360.937" x2="711.03" y2="350.15" stroke="white" stroke-width="2"/>
<line x1="465.699" y1="359.968" x2="454.912" y2="353.74" stroke="white" stroke-width="2"/>
<line x1="492.65" y1="361.036" x2="483.109" y2="353.029" stroke="white" stroke-width="2"/>
<line x1="519.402" y1="361.691" x2="511.396" y2="352.149" stroke="white" stroke-width="2"/>
<line x1="545.993" y1="361.937" x2="539.766" y2="351.15" stroke="white" stroke-width="2"/>
<line x1="572.467" y1="362.168" x2="568.206" y2="350.464" stroke="white" stroke-width="2"/>
<line x1="598.875" y1="362.389" x2="596.712" y2="350.123" stroke="white" stroke-width="2"/>
<line x1="625.262" y1="362.216" x2="625.262" y2="349.76" stroke="white" stroke-width="2"/>
<line x1="651.683" y1="362.042" x2="653.846" y2="349.776" stroke="white" stroke-width="2"/>
<line x1="438.521" y1="359.263" x2="426.817" y2="355.003" stroke="white" stroke-width="2"/>
<line x1="650.154" y1="383.282" x2="654.414" y2="371.577" stroke="white" stroke-width="2"/>
<line x1="676.779" y1="382.734" x2="683.006" y2="371.947" stroke="white" stroke-width="2"/>
<line x1="703.57" y1="382.202" x2="711.576" y2="372.66" stroke="white" stroke-width="2"/>
<line x1="437.676" y1="381.765" x2="426.889" y2="375.538" stroke="white" stroke-width="2"/>
<line x1="464.623" y1="382.832" x2="455.081" y2="374.826" stroke="white" stroke-width="2"/>
<line x1="491.375" y1="383.488" x2="483.368" y2="373.946" stroke="white" stroke-width="2"/>
<line x1="517.966" y1="383.734" x2="511.738" y2="372.947" stroke="white" stroke-width="2"/>
<line x1="544.443" y1="383.966" x2="540.183" y2="372.262" stroke="white" stroke-width="2"/>
<line x1="570.851" y1="384.186" x2="568.688" y2="371.92" stroke="white" stroke-width="2"/>
<line x1="597.238" y1="384.013" x2="597.238" y2="371.557" stroke="white" stroke-width="2"/>
<line x1="623.656" y1="383.839" x2="625.819" y2="371.573" stroke="white" stroke-width="2"/>
<line x1="622.131" y1="405.079" x2="626.391" y2="393.374" stroke="white" stroke-width="2"/>
<line x1="648.751" y1="404.532" x2="654.979" y2="393.745" stroke="white" stroke-width="2"/>
<line x1="675.543" y1="404" x2="683.549" y2="394.458" stroke="white" stroke-width="2"/>
<line x1="702.541" y1="403.098" x2="712.082" y2="395.092" stroke="white" stroke-width="2"/>
<line x1="436.599" y1="404.63" x2="427.058" y2="396.624" stroke="white" stroke-width="2"/>
<line x1="463.351" y1="405.285" x2="455.345" y2="395.744" stroke="white" stroke-width="2"/>
<line x1="489.943" y1="405.532" x2="483.715" y2="394.745" stroke="white" stroke-width="2"/>
<line x1="516.416" y1="405.763" x2="512.156" y2="394.058" stroke="white" stroke-width="2"/>
<line x1="542.824" y1="405.984" x2="540.661" y2="393.718" stroke="white" stroke-width="2"/>
<line x1="569.211" y1="405.811" x2="569.211" y2="393.355" stroke="white" stroke-width="2"/>
<line x1="595.632" y1="405.637" x2="597.795" y2="393.37" stroke="white" stroke-width="2"/>
<line x1="203.24" y1="820.724" x2="207.5" y2="809.02" stroke="white" stroke-width="2"/>
<line x1="229.864" y1="820.178" x2="236.092" y2="809.391" stroke="white" stroke-width="2"/>
<line x1="256.656" y1="819.645" x2="264.662" y2="810.104" stroke="white" stroke-width="2"/>
<line x1="283.65" y1="818.744" x2="293.192" y2="810.737" stroke="white" stroke-width="2"/>
<line x1="17.7088" y1="820.276" x2="8.16716" y2="812.269" stroke="white" stroke-width="2"/>
<line x1="44.4605" y1="820.931" x2="36.4542" y2="811.389" stroke="white" stroke-width="2"/>
<line x1="71.0519" y1="821.178" x2="64.8241" y2="810.391" stroke="white" stroke-width="2"/>
<line x1="97.5291" y1="821.408" x2="93.269" y2="809.704" stroke="white" stroke-width="2"/>
<line x1="123.937" y1="821.63" x2="121.774" y2="809.363" stroke="white" stroke-width="2"/>
<line x1="150.324" y1="821.456" x2="150.324" y2="809" stroke="white" stroke-width="2"/>
<line x1="176.742" y1="821.282" x2="178.905" y2="809.016" stroke="white" stroke-width="2"/>
<line x1="175.217" y1="842.522" x2="179.477" y2="830.818" stroke="white" stroke-width="2"/>
<line x1="201.837" y1="841.975" x2="208.065" y2="831.188" stroke="white" stroke-width="2"/>
<line x1="228.628" y1="841.443" x2="236.635" y2="831.902" stroke="white" stroke-width="2"/>
<line x1="255.627" y1="840.542" x2="265.168" y2="832.535" stroke="white" stroke-width="2"/>
<line x1="282.859" y1="839.274" x2="293.646" y2="833.046" stroke="white" stroke-width="2"/>
<line x1="16.4371" y1="842.729" x2="8.43071" y2="833.187" stroke="white" stroke-width="2"/>
<line x1="43.0285" y1="842.975" x2="36.8007" y2="832.188" stroke="white" stroke-width="2"/>
<line x1="69.5017" y1="843.206" x2="65.2416" y2="831.502" stroke="white" stroke-width="2"/>
<line x1="95.9097" y1="843.427" x2="93.7468" y2="831.16" stroke="white" stroke-width="2"/>
<line x1="122.297" y1="843.253" x2="122.297" y2="830.797" stroke="white" stroke-width="2"/>
<line x1="148.718" y1="843.079" x2="150.881" y2="830.813" stroke="white" stroke-width="2"/>
<line x1="147.189" y1="864.32" x2="151.449" y2="852.616" stroke="white" stroke-width="2"/>
<line x1="173.814" y1="863.772" x2="180.042" y2="852.986" stroke="white" stroke-width="2"/>
<line x1="200.605" y1="863.24" x2="208.611" y2="853.698" stroke="white" stroke-width="2"/>
<line x1="227.603" y1="862.338" x2="237.145" y2="854.332" stroke="white" stroke-width="2"/>
<line x1="254.836" y1="861.07" x2="265.623" y2="854.843" stroke="white" stroke-width="2"/>
<line x1="282.33" y1="860.219" x2="294.034" y2="855.958" stroke="white" stroke-width="2"/>
<line x1="15.0012" y1="864.772" x2="8.77331" y2="853.986" stroke="white" stroke-width="2"/>
<line x1="41.4783" y1="865.004" x2="37.2182" y2="853.3" stroke="white" stroke-width="2"/>
<line x1="67.8863" y1="865.224" x2="65.7234" y2="852.958" stroke="white" stroke-width="2"/>
<line x1="94.2734" y1="865.051" x2="94.2734" y2="852.595" stroke="white" stroke-width="2"/>
<line x1="120.691" y1="864.877" x2="122.854" y2="852.611" stroke="white" stroke-width="2"/>
<line x1="119.166" y1="886.117" x2="123.426" y2="874.412" stroke="white" stroke-width="2"/>
<line x1="145.786" y1="885.57" x2="152.014" y2="874.783" stroke="white" stroke-width="2"/>
<line x1="172.578" y1="885.038" x2="180.584" y2="875.496" stroke="white" stroke-width="2"/>
<line x1="199.576" y1="884.136" x2="209.118" y2="876.13" stroke="white" stroke-width="2"/>
<line x1="226.812" y1="882.868" x2="237.599" y2="876.641" stroke="white" stroke-width="2"/>
<line x1="254.306" y1="882.016" x2="266.011" y2="877.756" stroke="white" stroke-width="2"/>
<line x1="282.08" y1="880.803" x2="294.347" y2="878.64" stroke="white" stroke-width="2"/>
<line x1="13.4509" y1="886.801" x2="9.19083" y2="875.096" stroke="white" stroke-width="2"/>
<line x1="39.8589" y1="887.022" x2="37.696" y2="874.756" stroke="white" stroke-width="2"/>
<line x1="66.2461" y1="886.849" x2="66.2461" y2="874.393" stroke="white" stroke-width="2"/>
<line x1="92.6675" y1="886.675" x2="94.8304" y2="874.409" stroke="white" stroke-width="2"/>
<line x1="91.1384" y1="907.915" x2="95.3985" y2="896.21" stroke="white" stroke-width="2"/>
<line x1="117.763" y1="907.367" x2="123.991" y2="896.58" stroke="white" stroke-width="2"/>
<line x1="144.554" y1="906.836" x2="152.561" y2="897.294" stroke="white" stroke-width="2"/>
<line x1="171.553" y1="905.933" x2="181.094" y2="897.927" stroke="white" stroke-width="2"/>
<line x1="198.785" y1="904.666" x2="209.572" y2="898.438" stroke="white" stroke-width="2"/>
<line x1="226.279" y1="903.813" x2="237.984" y2="899.553" stroke="white" stroke-width="2"/>
<line x1="254.053" y1="902.601" x2="266.319" y2="900.438" stroke="white" stroke-width="2"/>
<line x1="11.8355" y1="908.819" x2="9.6726" y2="896.553" stroke="white" stroke-width="2"/>
<line x1="38.2227" y1="908.646" x2="38.2227" y2="896.19" stroke="white" stroke-width="2"/>
<line x1="64.6402" y1="908.472" x2="66.8031" y2="896.205" stroke="white" stroke-width="2"/>
<line x1="297.68" y1="903.418" x2="285.224" y2="903.418" stroke="white" stroke-width="2"/>
<line x1="63.115" y1="929.712" x2="67.3751" y2="918.007" stroke="white" stroke-width="2"/>
<line x1="89.7355" y1="929.165" x2="95.9634" y2="918.378" stroke="white" stroke-width="2"/>
<line x1="116.527" y1="928.633" x2="124.533" y2="919.091" stroke="white" stroke-width="2"/>
<line x1="143.525" y1="927.731" x2="153.067" y2="919.725" stroke="white" stroke-width="2"/>
<line x1="170.762" y1="926.463" x2="181.549" y2="920.235" stroke="white" stroke-width="2"/>
<line x1="198.256" y1="925.611" x2="209.96" y2="921.351" stroke="white" stroke-width="2"/>
<line x1="226.029" y1="924.398" x2="238.296" y2="922.235" stroke="white" stroke-width="2"/>
<line x1="10.1953" y1="930.443" x2="10.1953" y2="917.988" stroke="white" stroke-width="2"/>
<line x1="36.6168" y1="930.27" x2="38.7797" y2="918.003" stroke="white" stroke-width="2"/>
<line x1="269.652" y1="925.216" x2="257.197" y2="925.216" stroke="white" stroke-width="2"/>
<line x1="297.365" y1="926.368" x2="285.099" y2="924.205" stroke="white" stroke-width="2"/>
<line x1="35.0877" y1="951.51" x2="39.3478" y2="939.805" stroke="white" stroke-width="2"/>
<line x1="61.7121" y1="950.962" x2="67.9399" y2="940.175" stroke="white" stroke-width="2"/>
<line x1="88.5035" y1="950.43" x2="96.5099" y2="940.889" stroke="white" stroke-width="2"/>
<line x1="115.502" y1="949.529" x2="125.043" y2="941.523" stroke="white" stroke-width="2"/>
<line x1="142.734" y1="948.261" x2="153.521" y2="942.033" stroke="white" stroke-width="2"/>
<line x1="170.228" y1="947.409" x2="181.933" y2="943.149" stroke="white" stroke-width="2"/>
<line x1="198.002" y1="946.196" x2="210.269" y2="944.033" stroke="white" stroke-width="2"/>
<line x1="8.58941" y1="952.068" x2="10.7523" y2="939.801" stroke="white" stroke-width="2"/>
<line x1="241.629" y1="947.013" x2="229.173" y2="947.013" stroke="white" stroke-width="2"/>
<line x1="269.338" y1="948.165" x2="257.072" y2="946.003" stroke="white" stroke-width="2"/>
<line x1="296.775" y1="949.288" x2="285.071" y2="945.028" stroke="white" stroke-width="2"/>
</g>
<defs>
<clipPath id="clip0_17_30453">
<rect width="720" height="960" fill="white"/>
</clipPath>
</defs>
</svg>
